<?xml version="1.0" encoding="utf-8"?>
<!-- Generator: Adobe Illustrator 22.0.1, SVG Export Plug-In . SVG Version: 6.00 Build 0)  -->
<svg version="1.1" id="Layer_1" xmlns="http://www.w3.org/2000/svg" xmlns:xlink="http://www.w3.org/1999/xlink" x="0px" y="0px"
	 viewBox="0 0 40 40" style="enable-background:new 0 0 40 40;" xml:space="preserve">
<style type="text/css">
	.st0{fill:#052F43;}
</style>
<title>plus ghost btn</title>
<desc>Created with Sketch.</desc>
<g id="Symbols">
	<g id="plus-ghost-btn">
		<g id="Group-2">
			<g id="Rectangle-3">
				<path class="st0" d="M20,40C9,40,0,31,0,20C0,9,9,0,20,0c11,0,20,9,20,20C40,31,31,40,20,40z M20,1C9.5,1,1,9.5,1,20
					s8.5,19,19,19s19-8.5,19-19S30.5,1,20,1z"/>
			</g>
			<g id="Combined-Shape">
				<path class="st0" d="M21,19h7v2h-7v7h-2v-7h-7v-2h7v-7h2V19z"/>
			</g>
		</g>
	</g>
</g>
</svg>
